<svg class="icon" viewBox="0 0 1024 1024" xmlns="http://www.w3.org/2000/svg" width="200" height="200">
  <path d="M160 96m32 0h640q32 0 32 32v768q0 32-32 32H192q-32 0-32-32V128q0-32 32-32z" fill="#F5F6F7" stroke="#D4DAE1" stroke-width="12" stroke-linejoin="round"/>
  <path d="M270 282h484q28 0 28 28v316q0 28-28 28H270q-28 0-28-28V310q0-28 28-28z" fill="#5B5F66" stroke="#000000" stroke-opacity="0.10" stroke-width="8" stroke-linejoin="round"/>
  <g fill="#F5F6F7"><rect x="286" y="314" width="54" height="42" rx="8"/><rect x="386" y="314" width="54" height="42" rx="8"/><rect x="486" y="314" width="54" height="42" rx="8"/><rect x="586" y="314" width="54" height="42" rx="8"/><rect x="686" y="314" width="54" height="42" rx="8"/></g>
  <path d="M478 410l92 55-92 55z" fill="#FFFFFF"/>
  <path d="M312 744m8 0h384q8 0 8 8v24q0 8-8 8H320q-8 0-8-8v-24q0-8 8-8z" fill="#878B8E" stroke="#000000" stroke-opacity="0.10" stroke-width="8" stroke-linejoin="round"/>
  <text x="512" y="875" text-anchor="middle" font-family="Arial, Helvetica, sans-serif" font-size="118" font-weight="700" fill="#5B5F66">AVI</text>
</svg>